<svg width="14" height="18" viewBox="0 0 14 18" fill="none" xmlns="http://www.w3.org/2000/svg">
<path d="M8.29082 7.24844C8.29082 8.02164 7.66402 8.64844 6.89082 8.64844C6.11762 8.64844 5.49082 8.02164 5.49082 7.24844C5.49082 6.47524 6.11762 5.84844 6.89082 5.84844C7.66402 5.84844 8.29082 6.47524 8.29082 7.24844Z" fill="currentColor"/>
<path fill-rule="evenodd" clip-rule="evenodd" d="M6.99883 2.64844C4.26502 2.64844 2.04883 4.86463 2.04883 7.59844C2.04883 8.15457 2.31448 8.92606 2.84636 9.85511C3.3635 10.7584 4.06659 11.699 4.79059 12.5638C5.5114 13.4248 6.23503 14.1894 6.77988 14.7399C6.8567 14.8175 6.92985 14.8908 6.99883 14.9593C7.0678 14.8908 7.14096 14.8175 7.21778 14.7399C7.76263 14.1894 8.48625 13.4248 9.20707 12.5638C9.93107 11.699 10.6342 10.7584 11.1513 9.85511C11.6832 8.92606 11.9488 8.15457 11.9488 7.59844C11.9488 4.86463 9.73264 2.64844 6.99883 2.64844ZM6.99883 16.3484C6.32245 17.085 6.32216 17.0847 6.32216 17.0847L6.31639 17.0794L6.30184 17.066L6.24837 17.0161C6.20225 16.9729 6.13565 16.9101 6.05148 16.8294C5.8832 16.6683 5.64435 16.4357 5.3584 16.1468C4.78763 15.5701 4.02375 14.7634 3.25707 13.8477C2.49357 12.9357 1.70916 11.8942 1.11067 10.8488C0.526925 9.82913 0.0488281 8.68535 0.0488281 7.59844C0.0488281 3.76006 3.16045 0.648437 6.99883 0.648438C10.8372 0.648438 13.9488 3.76006 13.9488 7.59844C13.9488 8.68535 13.4707 9.82913 12.887 10.8488C12.2885 11.8942 11.5041 12.9357 10.7406 13.8477C9.9739 14.7634 9.21002 15.5701 8.63925 16.1468C8.35331 16.4357 8.11446 16.6683 7.94618 16.8294C7.86201 16.9101 7.7954 16.9729 7.74928 17.0161L7.69581 17.066L7.68127 17.0794L7.67716 17.0832L7.67591 17.0843C7.67591 17.0843 7.67521 17.085 6.99883 16.3484ZM6.99883 16.3484L7.67591 17.0843L6.99883 17.7061L6.32216 17.0847L6.99883 16.3484Z" fill="currentColor"/>
</svg>
