<svg fill="currentColor" xmlns="http://www.w3.org/2000/svg" viewBox="0 0 34 34">
    <path
        d="M12.293 13.707 15.586 17l-3.293 3.293 1.414 1.414L17 18.414l3.293 3.293 1.414-1.414L18.414 17l3.293-3.293-1.414-1.414L17 15.586l-3.293-3.293-1.414 1.414Z"
    />
    <path fill-rule="evenodd" clip-rule="evenodd"
        d="M17 0C7.611 0 0 7.611 0 17s7.611 17 17 17 17-7.611 17-17S26.389 0 17 0ZM2 17C2 8.716 8.716 2 17 2c8.284 0 15 6.716 15 15 0 8.284-6.716 15-15 15-8.284 0-15-6.716-15-15Z"
    />
</svg>