<svg width="16" height="17" viewBox="0 0 16 17" fill="none" xmlns="http://www.w3.org/2000/svg">
<path d="M3.57273 4.84269C3.5727 5.00291 3.62018 5.15954 3.70917 5.29277C3.79816 5.426 3.92467 5.52984 4.07268 5.59117C4.2207 5.6525 4.38357 5.66856 4.54072 5.63731C4.69785 5.60606 4.8422 5.52891 4.95549 5.41562C5.06878 5.30233 5.14593 5.15798 5.17718 5.00084C5.20843 4.8437 5.19237 4.68082 5.13104 4.5328C5.06972 4.38479 4.96587 4.25828 4.83264 4.16929C4.69941 4.0803 4.54278 4.03282 4.38257 4.03285C4.1678 4.0329 3.96184 4.11823 3.80998 4.2701C3.65811 4.42196 3.57278 4.62792 3.57273 4.84269ZM0.999999 8.50005L1.00017 8.51025L1.04617 11.4471C1.05812 12.506 1.48409 13.5182 2.23291 14.267C2.98173 15.0159 3.99391 15.4418 5.05283 15.4538L8 15.5001L8.0102 15.4999L10.947 15.454C12.006 15.4421 13.0182 15.0161 13.767 14.2673C14.5159 13.5185 14.9419 12.5063 14.9539 11.4473L15 8.50005L14.9998 8.48985L14.9539 5.5529C14.9419 4.49396 14.5159 3.48179 13.767 2.73297C13.0182 1.98416 12.006 1.55819 10.9471 1.5462L8 1.5L7.9898 1.5002L5.05297 1.54607C3.99405 1.55805 2.98189 1.98404 2.23308 2.73285C1.48426 3.48167 1.05829 4.49384 1.0463 5.55276L0.999999 8.50005ZM2.30373 8.50005L2.34953 5.57336C2.35767 4.85348 2.64725 4.16538 3.15631 3.65631C3.66536 3.14724 4.35346 2.85765 5.07333 2.84951L8 2.80381L10.9267 2.84951C11.6465 2.85767 12.3346 3.14726 12.8437 3.65633C13.3528 4.16539 13.6424 4.85348 13.6505 5.57336L13.6962 8.50005L13.6505 11.4267C13.6424 12.1466 13.3528 12.8347 12.8437 13.3438C12.3347 13.8529 11.6466 14.1425 10.9267 14.1506L8 14.1963L5.07333 14.1506C4.35345 14.1425 3.66534 13.8529 3.15628 13.3438C2.64721 12.8347 2.35764 12.1466 2.34953 11.4267L2.30373 8.50005ZM4.40533 8.50005C4.40533 9.21102 4.61616 9.90603 5.01115 10.4972C5.40614 11.0883 5.96756 11.5491 6.62441 11.8211C7.28126 12.0932 8.00403 12.1644 8.70134 12.0257C9.39864 11.887 10.0392 11.5446 10.5419 11.0419C11.0446 10.5392 11.387 9.89864 11.5257 9.20132C11.6644 8.50401 11.5932 7.78123 11.3211 7.12438C11.049 6.46754 10.5883 5.90612 9.99712 5.51113C9.40597 5.11614 8.71097 4.90532 8 4.90532C7.04696 4.9064 6.13326 5.28548 5.45936 5.95939C4.78546 6.6333 4.4064 7.547 4.40533 8.50005ZM5.7089 8.50005C5.7089 8.0469 5.84327 7.60393 6.09503 7.22715C6.34678 6.85037 6.70461 6.55671 7.12326 6.3833C7.54191 6.20989 8.00259 6.16452 8.44702 6.25293C8.89146 6.34133 9.2997 6.55955 9.62012 6.87997C9.94054 7.2004 10.1587 7.60865 10.2471 8.05309C10.3355 8.49753 10.2902 8.95821 10.1168 9.37686C9.94334 9.79551 9.64967 10.1533 9.27289 10.4051C8.89612 10.6568 8.45314 10.7912 8 10.7912C7.39258 10.7905 6.81023 10.5489 6.38073 10.1194C5.95122 9.68983 5.70962 9.10748 5.70893 8.50005H5.7089Z" fill="currentColor" stroke="currentColor" stroke-width="0.4"/>
</svg>
