<svg width="16" height="17" viewBox="0 0 16 17" fill="none" xmlns="http://www.w3.org/2000/svg">
<path d="M2.50369 6.94449H5.14073V14.8802H2.50369V6.94449ZM3.83986 3.11914C2.93731 3.11914 2.34766 3.71167 2.34766 4.48938C2.34766 5.2511 2.92006 5.86086 3.80535 5.86086H3.82217C4.74197 5.86086 5.31479 5.25107 5.31479 4.48938C5.29753 3.71167 4.742 3.11914 3.83986 3.11914ZM11.6154 6.75808C10.2156 6.75808 9.58853 7.528 9.23869 8.06794V6.94449H6.60086C6.63578 7.68896 6.60086 14.8802 6.60086 14.8802H9.23869V10.4483C9.23869 10.211 9.25595 9.97449 9.32535 9.80445C9.51634 9.33061 9.95034 8.83991 10.6783 8.83991C11.6335 8.83991 12.0149 9.56797 12.0149 10.6343V14.8802H14.6523V10.3297C14.6523 7.89222 13.3515 6.75808 11.6154 6.75808Z" fill="currentColor"/>
</svg>
