<svg fill="none" xmlns="http://www.w3.org/2000/svg" viewBox="0 0 33 33">
    <path
        d="m11.412 26.22 6.467 2.885 7.373-3.465 1.055-2.713-.034-5.36-3.166-7.446-2.104-2.313-2.057.617-1.905-.87-2.357 1.02-2.256-.826L11.15 9.21 8.585 4.192 5.509 5.92l2.74 7.185c-.736 1.557-2.01 4.86-1.97 5.148.04.289 1.044 2.507 1.544 3.547l3.589 4.42Z"
        fill="#fff" />
    <path fill-rule="evenodd" clip-rule="evenodd"
        d="M8.136 5.136c-.35-.051-.737.039-.975.143-.239.106-.572.33-.776.626-.18.262-.262.569-.082.982l.86 1.983c.796 1.841 1.761 4.073 1.896 4.353l3.227 6.699-1.269.591-2.76-5.728a7.61 7.61 0 0 0-.383.552c-.518.82-.93 1.842-.788 2.866.072.52.314 1.184.692 1.933.372.74.856 1.52 1.372 2.263 1.046 1.507 2.163 2.763 2.68 3.174.546.433 1.86 1.25 3.213 1.892.673.32 1.328.582 1.88.734.276.075.51.118.696.131.193.014.291-.009.328-.023 1.321-.518 6.3-2.944 7.323-3.442-.003.001-.002 0 .002-.003.02-.022.13-.135.252-.502.13-.39.231-.93.292-1.576.12-1.286.075-2.877-.118-4.273-.184-1.326-.979-3.318-1.83-5.188-.419-.921-.84-1.79-1.186-2.502l-.044-.092c-.318-.654-.584-1.202-.702-1.502-.233-.59-.494-.8-.662-.871-.164-.07-.384-.07-.67.069-.22.107-.407.252-.501.417-.067.118-.13.316.016.684l.031.072c.394.935.845 2.06 1.089 2.682l-1.312.494a129.208 129.208 0 0 0-1.109-2.728 26.955 26.955 0 0 0-.471-1.066c-.384-.797-1.156-1.076-1.705-.808-.429.209-.694.45-.816.674-.101.184-.136.406.008.726l.01.023c.51 1.112 1.2 2.652 1.57 3.485l-1.286.553c-.37-.831-1.058-2.364-1.564-3.47l-.013-.028c-.194-.425-.36-.78-.467-1.004-.205-.426-.403-.574-.538-.623-.132-.048-.364-.063-.765.133-.427.208-.622.413-.694.663-.056.194-.066.51.094 1.016.136.358.242.623.312.77l1.502 3.12-1.269.59-1.502-3.12a7.376 7.376 0 0 1-.373-.915c-.11-.29-.234-.622-.367-.978l-.19-.51c-.41-1.101-.902-2.392-1.403-3.545-.178-.41-.451-.552-.755-.596Zm3.159 2.82c.255-.252.557-.437.85-.58.601-.292 1.247-.414 1.868-.186.33.121.607.324.838.58.31-.368.722-.651 1.156-.863 1.186-.578 2.424-.083 3.176.814a2.76 2.76 0 0 1 .785-.56c.54-.264 1.197-.37 1.842-.096.64.272 1.119.858 1.437 1.668.097.247.347.762.702 1.492.346.713.774 1.595 1.201 2.535.842 1.85 1.729 4.021 1.944 5.582.206 1.491.258 3.191.125 4.596-.066.7-.18 1.356-.357 1.886-.161.483-.436 1.052-.956 1.305l-.007.004c-1 .487-6.033 2.94-7.418 3.483-.302.119-.633.137-.937.116a5.07 5.07 0 0 1-.974-.179c-.665-.182-1.405-.483-2.116-.822-1.417-.672-2.834-1.543-3.49-2.064-.686-.544-1.9-1.94-2.969-3.48A20.715 20.715 0 0 1 6.52 20.75c-.407-.806-.727-1.633-.83-2.377-.208-1.502.399-2.865.987-3.798a9.216 9.216 0 0 1 .912-1.208c-.367-.831-1.127-2.588-1.761-4.053L5.01 7.429c-.403-.926-.201-1.739.208-2.332.386-.56.95-.926 1.357-1.105a3.327 3.327 0 0 1 1.741-.247c.724.105 1.462.518 1.866 1.446.39.897.772 1.87 1.112 2.765Z"
        fill="#161616" />
</svg>