<svg xmlns="http://www.w3.org/2000/svg" width="150" height="107" fill="none">
  <path fill="currentColor" d="M49.717 36.005c-5.1 10.953-14.306-4.564-18.272-13.692 2.266 11.494 6.119 35.903 3.4 41.583C32.124 69.576 10.481 74.714 0 76.573c14.164-1.014 43.258-1.927 46.317 2.536 3.06 4.463-6.374 20.453-11.473 27.891 7.366-8.114 23.201-24.24 27.62-23.834 4.42.406 4.958 9.635 4.675 14.199 1.7-6.085 7.309-18.256 16.147-18.256 8.839 0 12.748 18.594 13.598 27.891-.85-9.297-.85-27.891 5.949-27.891 6.799 0 22.946 12.17 30.17 18.256-7.224-6.593-20.822-21.704-17.422-29.412 3.399-7.709 24.362-14.03 34.419-16.228-8.782 1.521-27.96 3.043-34.419-3.043-6.459-6.085 8.923-34.99 17.422-48.682-10.34 12.847-32.975 38.946-40.793 40.569-7.82 1.622-1.842-19.947 2.124-30.934-4.39 8.79-14.957 26.877-22.096 28.905-7.139 2.029-11.756-22.482-13.173-34.99-.991 6.254-4.25 21.501-9.348 32.455Z"/>
</svg>
