<svg xmlns="http://www.w3.org/2000/svg" width="108" height="82" fill="none">
  <path fill="currentColor" fill-rule="evenodd" d="M64.78.133c9.95 0 18.084 7.78 18.648 17.59 9.396.977 16.722 8.921 16.722 18.577 0 .742-.043 1.475-.128 2.196a19.896 19.896 0 0 1 1.763 3.624 18.62 18.62 0 0 1 5.518 13.254c0 10.316-8.363 18.678-18.68 18.678a18.61 18.61 0 0 1-12.488-4.788c-2.482 7.403-9.475 12.738-17.714 12.738-8.337 0-15.398-5.462-17.8-13.002h-.168c-2.402 7.54-9.463 13.002-17.8 13.002-10.316 0-18.678-8.363-18.678-18.679 0-.74.043-1.47.126-2.187A19.913 19.913 0 0 1 0 49c0-10.129 7.53-18.499 17.296-19.819 2.095-8.024 9.393-13.947 18.074-13.947 3.994 0 7.696 1.254 10.733 3.39C46.203 8.394 54.526.133 64.78.133Z" clip-rule="evenodd"/>
</svg>
