<svg width="17" height="18" viewBox="0 0 17 18" fill="none" xmlns="http://www.w3.org/2000/svg">
<path fill-rule="evenodd" clip-rule="evenodd" d="M8.95312 2.10156C7.95901 2.10156 7.15313 2.90745 7.15313 3.90156C7.15313 4.89567 7.95901 5.70156 8.95312 5.70156C9.94724 5.70156 10.7531 4.89567 10.7531 3.90156C10.7531 2.90745 9.94724 2.10156 8.95312 2.10156ZM5.15313 3.90156C5.15313 1.80288 6.85444 0.101563 8.95312 0.101563C11.0518 0.101563 12.7531 1.80288 12.7531 3.90156C12.7531 6.00024 11.0518 7.70156 8.95312 7.70156C6.85444 7.70156 5.15313 6.00024 5.15313 3.90156Z" fill="currentColor"/>
<path fill-rule="evenodd" clip-rule="evenodd" d="M1.95312 15.4516L1.54526 16.3646L0.953125 16.1001L0.953125 15.4516C0.953125 13.1334 1.86379 11.3454 3.39145 10.1634C4.88444 9.00828 6.87323 8.50156 8.95312 8.50156C11.033 8.50156 13.0218 9.00828 14.5148 10.1634C16.0425 11.3454 16.9531 13.1334 16.9531 15.4516L16.9531 16.1001L16.361 16.3646L15.9531 15.4516C16.361 16.3646 16.361 16.3646 16.361 16.3646L16.3588 16.3656L16.3554 16.3671L16.3452 16.3716L16.3113 16.3863C16.2827 16.3985 16.2423 16.4156 16.1907 16.4368C16.0874 16.4792 15.9391 16.5381 15.7505 16.608C15.3734 16.7477 14.8337 16.9319 14.1692 17.1154C12.8445 17.4814 11.0018 17.8516 8.95312 17.8516C6.90444 17.8516 5.0617 17.4814 3.73706 17.1154C3.07259 16.9319 2.5328 16.7477 2.15577 16.608C1.96712 16.5381 1.8188 16.4792 1.71556 16.4368C1.66393 16.4156 1.62353 16.3985 1.59496 16.3863L1.56103 16.3716L1.55085 16.3671L1.54748 16.3656L1.54622 16.365C1.54622 16.365 1.54526 16.3646 1.95312 15.4516ZM14.9187 14.7826C14.7714 13.4003 14.1623 12.4194 13.2909 11.7452C12.2504 10.9402 10.7392 10.5016 8.95312 10.5016C7.16702 10.5016 5.65582 10.9402 4.61531 11.7452C3.74394 12.4194 3.13487 13.4003 2.98759 14.7826C3.31019 14.8985 3.74568 15.0429 4.2697 15.1877C5.47856 15.5217 7.13581 15.8516 8.95312 15.8516C10.7704 15.8516 12.4277 15.5217 13.6366 15.1877C14.1606 15.0429 14.5961 14.8985 14.9187 14.7826Z" fill="currentColor"/>
</svg>
