<svg width="55" height="51" viewBox="0 0 55 51" fill="none" xmlns="http://www.w3.org/2000/svg">
<g clip-path="url(#clip0_1361_16198)">
<path d="M30.4323 15.9841C29.6321 16.1145 28.8314 16.1862 28.0312 16.1862C28.0312 15.1468 28.0312 14.1074 28.0312 13.068C31.0008 13.068 33.9698 12.0811 36.9393 10.7617V13.8799C36.1392 14.2355 35.3385 14.5671 34.5383 14.8612V37.9072C33.1696 38.4109 31.801 38.8063 30.4323 39.0296C30.4323 31.3476 30.4323 23.6656 30.4323 15.9836V15.9841Z" fill="currentColor"/>
<path d="M37.6133 10.2637C39.8835 9.21956 42.1532 8.01083 44.4233 6.92969V10.0713C43.4792 10.5212 42.5354 10.9925 41.5917 11.4653V19.8434C42.5359 19.3706 43.4796 18.8988 44.4233 18.4494V21.5911C43.4792 22.0409 42.5354 22.5123 41.5917 22.9851V31.5437C42.5359 31.0709 43.4796 30.5991 44.4233 30.1497V33.2914C42.1532 34.3725 39.8835 35.5817 37.6133 36.6254V10.2637Z" fill="currentColor"/>
<path d="M45.6035 6.377C47.3788 5.57259 49.1546 4.87747 50.93 4.43187C54.0651 3.71752 54.8742 5.45205 54.8746 7.84417V26.3695C54.8746 28.8522 54.0655 30.0788 50.93 30.7931C49.1546 31.2392 47.3788 31.9343 45.6035 32.7382V6.377ZM50.8962 27.8771V7.36528C50.4581 7.47597 50.0196 7.60215 49.5815 7.74098V28.2523C50.0196 28.1135 50.4581 27.9873 50.8962 27.8766V27.8771Z" fill="currentColor"/>
<path d="M0.0175781 43.4058C0.0175781 35.9386 0.0175781 28.4719 0.0175781 21.0047C1.38625 21.0047 2.75492 20.7411 4.12359 20.2932V43.5545C4.57575 43.4063 5.02838 43.2384 5.48054 43.0531V19.7918C6.84921 19.2308 8.21788 18.5122 9.58655 17.7148V40.1159C9.58655 42.569 8.05559 45.1469 4.81919 46.4297C1.54854 47.6047 0.0175781 45.8561 0.0175781 43.4058Z" fill="currentColor"/>
<path d="M10.9785 16.8811C12.9795 15.6513 14.9804 14.3112 16.9809 13.1095C17.4157 19.0847 17.851 25.0664 18.2858 31.057C18.3552 32.057 18.4424 33.0115 18.5118 34.0125C18.5813 33.9736 18.6511 33.9351 18.7206 33.8971C18.7032 32.8671 18.6859 31.8915 18.6859 30.8338V12.1245C19.7126 11.5584 20.7389 11.0476 21.7656 10.625V36.7892C19.7647 37.6129 17.7637 38.7728 15.7632 40.0205C15.3284 34.0552 14.8932 28.0941 14.4584 22.1349C14.3889 21.14 14.3017 20.1916 14.2323 19.1968C14.1629 19.2413 14.093 19.2854 14.0236 19.33C14.0409 20.3581 14.0583 21.3328 14.0583 22.39V41.0993C13.032 41.7545 12.0053 42.4145 10.9785 43.0453C10.9785 34.3239 10.9785 25.6025 10.9785 16.8811Z" fill="currentColor"/>
<path d="M23.1562 10.11C24.5249 9.66204 25.8936 9.39844 27.2623 9.39844C27.2623 18.1198 27.2623 26.8413 27.2623 35.5627C25.8936 35.5627 24.5249 35.8263 23.1562 36.2742V10.11Z" fill="currentColor"/>
<path d="M28.0332 11.2664V9.41225C30.2527 9.41225 32.6861 8.82454 35.6918 7.56328C36.1889 7.35456 36.6965 7.11347 37.2434 6.82641C38.6918 6.06562 42.2518 4.20539 44.0267 3.36017L45.2143 2.80764C47.3283 1.85032 49.0703 1.21477 50.7063 0.803883L50.726 0.799192C51.6998 0.577334 53.4925 0.34375 54.9155 0.34375C54.9273 0.34375 54.9385 0.34375 54.9498 0.34375L54.9451 2.19788C54.9352 2.19788 54.9254 2.19788 54.9155 2.19788C53.6787 2.19788 52.037 2.40332 51.1477 2.60501C49.6252 2.98822 47.9854 3.58813 45.9882 4.49292L44.8165 5.03795C43.0787 5.86581 39.5445 7.71291 38.1055 8.46854C37.5112 8.78045 36.9563 9.04405 36.4094 9.27342C33.1688 10.6332 30.5074 11.2669 28.0332 11.2669V11.2664Z" fill="currentColor"/>
<path d="M0.0175781 19.1877V17.3335C1.21317 17.3335 2.45661 17.1178 3.81918 16.6731L5.14423 16.1834C6.32716 15.698 7.62782 15.039 9.12032 14.1694L10.5012 13.3415C11.3731 12.8054 12.2718 12.2313 13.1414 11.6755C14.2413 10.9724 15.3793 10.2453 16.5036 9.57038L16.5172 9.56241L18.2381 8.5685C19.3863 7.93529 20.4243 7.43013 21.4121 7.02347L21.4431 7.01128L22.868 6.48407C24.4257 5.97422 25.8633 5.72656 27.2625 5.72656V7.5807C26.0669 7.5807 24.8235 7.79646 23.4614 8.24064L22.103 8.74392C21.1874 9.12151 20.2184 9.5943 19.1415 10.1876L17.4515 11.1637C16.3516 11.8246 15.2273 12.5432 14.14 13.2378C13.2639 13.7974 12.3581 14.3767 11.4637 14.9264L10.064 15.766C8.48008 16.6886 7.09968 17.3865 5.83279 17.9058L5.80277 17.9175L4.41252 18.4306C2.85483 18.9405 1.41721 19.1881 0.0180472 19.1881L0.0175781 19.1877Z" fill="currentColor"/>
<path d="M0.00938089 51.0021L0 49.148C2.64729 49.1344 5.50658 47.7573 7.95405 46.4125L10.5113 45.0073C11.3889 44.4674 12.2843 43.8952 13.1506 43.3417L13.5587 43.0809L15.2669 42.0002C17.0784 40.8708 19.2205 39.5978 21.4123 38.6953L21.4433 38.6832L22.8683 38.1559C24.426 37.6466 25.8636 37.3984 27.2627 37.3984V39.2526C26.0676 39.2526 24.8242 39.4683 23.4616 39.9125L22.1032 40.4158C20.0432 41.2657 17.9907 42.4871 16.2533 43.5701L14.1492 44.9036C13.2702 45.4655 12.3612 46.0462 11.4634 46.5983L11.4245 46.6208L8.84758 48.0368C6.19608 49.4942 3.07224 50.9862 0.00984993 51.0017L0.00938089 51.0021Z" fill="currentColor"/>
<path d="M28.3272 42.9359H27.9941V41.0818H28.3018C30.3398 41.0255 32.3173 40.6512 34.1785 39.9692L34.2001 39.9613L37.2409 38.6892C38.5021 38.109 39.7911 37.4631 41.0378 36.8388C42.0153 36.3491 43.0261 35.843 44.0247 35.3674L45.2123 34.8149C46.7259 34.1292 48.0509 33.609 49.2714 33.2202C50.2995 32.8928 51.3535 32.6756 52.4046 32.5743C53.1687 32.5006 53.7165 32.502 54.4759 32.5049C54.6227 32.5049 54.7799 32.5058 54.9454 32.5058V34.3599C54.7766 34.3599 54.619 34.3599 54.4703 34.359C53.7376 34.3566 53.255 34.3552 52.5824 34.42C51.6621 34.5086 50.7376 34.6991 49.8342 34.987C48.6832 35.3534 47.4243 35.8482 45.9857 36.5002L44.8141 37.0452C43.8399 37.5091 42.8375 38.0114 41.868 38.4969C40.6025 39.1306 39.2944 39.7858 38.0007 40.3811L37.9712 40.3942L34.815 41.7113C32.7624 42.4631 30.5833 42.8754 28.3394 42.9364H28.3267L28.3272 42.9359Z" fill="currentColor"/>
<path d="M36.5234 46.7954V44.1523H36.9606V45.2776H38.3785V44.1523H38.8152V46.7954H38.3785V45.6702H36.9606V46.7954H36.5234Z" fill="currentColor"/>
<path d="M39.1191 45.4749C39.1191 44.5936 39.6154 44.1016 40.4334 44.1016C41.2514 44.1016 41.7439 44.5941 41.7439 45.4749C41.7439 46.3558 41.2477 46.8483 40.4334 46.8483C39.6191 46.8483 39.1191 46.3558 39.1191 45.4749ZM41.2885 45.4749C41.2885 44.8492 40.9662 44.4937 40.4334 44.4937C39.9006 44.4937 39.5746 44.8492 39.5746 45.4749C39.5746 46.1006 39.8968 46.4524 40.4334 46.4524C40.97 46.4524 41.2885 46.1006 41.2885 45.4749Z" fill="currentColor"/>
<path d="M42.0493 46.7954V44.1523H42.6788L43.4672 46.1997H43.5043L44.2965 44.1523H44.9222V46.7954H44.5038V44.8259H44.4668L43.7003 46.7954H43.2707L42.5043 44.8259H42.4672V46.7954H42.0488H42.0493Z" fill="currentColor"/>
<path d="M45.3262 46.7954V44.1523H47.2291V44.5449H45.7629V45.2781H47.0626V45.6706H45.7629V46.4038H47.2474V46.7963H45.3262V46.7954Z" fill="currentColor"/>
<path d="M47.5215 46.7954V44.1523H48.5951C49.3465 44.1523 49.5726 44.5041 49.5726 44.9075C49.5726 45.2443 49.4507 45.4811 49.1097 45.5923V45.6294C49.4024 45.7222 49.5206 45.9145 49.5984 46.2696L49.7133 46.7954H49.2691L49.158 46.2884C49.0989 46.0069 48.9915 45.8217 48.5843 45.8217H47.9586V46.7954H47.522H47.5215ZM47.9582 45.4291H48.5651C48.9615 45.4291 49.1167 45.2401 49.1167 44.9774C49.1167 44.7147 48.961 44.5445 48.5651 44.5445H47.9582V45.4291Z" fill="currentColor"/>
<path d="M49.9497 45.7776V44.1523H50.3864V45.7738C50.3864 46.2443 50.6457 46.4511 51.097 46.4511C51.5482 46.4511 51.8043 46.2438 51.8043 45.7738V44.1523H52.241V45.7776C52.241 46.5215 51.8301 46.8475 51.097 46.8475C50.3639 46.8475 49.9492 46.5215 49.9492 45.7776H49.9497Z" fill="currentColor"/>
<path d="M52.6352 46.7954V44.1523H53.109L54.4528 46.0553H54.4898V44.1523H54.9265V46.7954H54.4528L53.109 44.8925H53.0719V46.7954H52.6348H52.6352Z" fill="currentColor"/>
<path d="M28.041 50.7446V48.1016H28.4782V50.3525H29.8515V50.7451H28.041V50.7446Z" fill="currentColor"/>
<path d="M29.8906 49.4241C29.8906 48.5428 30.3869 48.0508 31.2049 48.0508C32.0229 48.0508 32.5154 48.5433 32.5154 49.4241C32.5154 50.305 32.0191 50.7975 31.2049 50.7975C30.3906 50.7975 29.8906 50.305 29.8906 49.4241ZM32.06 49.4241C32.06 48.7984 31.7382 48.4429 31.2049 48.4429C30.6716 48.4429 30.3461 48.7984 30.3461 49.4241C30.3461 50.0498 30.6683 50.4016 31.2049 50.4016C31.7415 50.4016 32.06 50.0498 32.06 49.4241Z" fill="currentColor"/>
<path d="M33.4876 50.7446L32.4473 48.1016H32.9435L33.747 50.2413H33.784L34.5875 48.1016H35.0613L34.0209 50.7446H33.4876Z" fill="currentColor"/>
<path d="M35.207 50.7446V48.1016H37.1099V48.4942H35.6437V49.2273H36.9434V49.6199H35.6437V50.353H37.1282V50.7456H35.207V50.7446Z" fill="currentColor"/>
<path d="M37.3027 49.994C37.3027 49.9757 37.3027 49.9532 37.3065 49.9312H37.7432C37.7394 49.9462 37.7394 49.9607 37.7394 49.972C37.7394 50.2384 37.943 50.4199 38.3797 50.4199C38.8163 50.4199 39.0091 50.2642 39.0091 50.0311C39.0091 49.4129 37.3506 49.8683 37.3506 48.8317C37.3506 48.3763 37.7132 48.0508 38.3689 48.0508C39.0982 48.0508 39.4055 48.3951 39.4055 48.8613V48.9166H38.9688V48.8758C38.9688 48.6132 38.8098 48.4241 38.3801 48.4241C37.9913 48.4241 37.8065 48.5799 37.8065 48.813C37.8065 49.4462 39.465 48.9982 39.465 50.0161C39.465 50.4565 39.0982 50.797 38.3989 50.797C37.5842 50.797 37.3032 50.4007 37.3032 49.9936L37.3027 49.994Z" fill="currentColor"/>
<path d="M40.6934 49.994C40.6934 49.9757 40.6934 49.9532 40.6971 49.9312H41.1338C41.13 49.9462 41.13 49.9607 41.13 49.972C41.13 50.2384 41.3336 50.4199 41.7703 50.4199C42.207 50.4199 42.3997 50.2642 42.3997 50.0311C42.3997 49.4129 40.7412 49.8683 40.7412 48.8317C40.7412 48.3763 41.1038 48.0508 41.7595 48.0508C42.4889 48.0508 42.7961 48.3951 42.7961 48.8613V48.9166H42.3594V48.8758C42.3594 48.6132 42.2004 48.4241 41.7708 48.4241C41.3819 48.4241 41.1971 48.5799 41.1971 48.813C41.1971 49.4462 42.8557 48.9982 42.8557 50.0161C42.8557 50.4565 42.4889 50.797 41.7895 50.797C40.9748 50.797 40.6938 50.4007 40.6938 49.9936L40.6934 49.994Z" fill="currentColor"/>
<path d="M43.1582 50.7446V48.1016H44.1873C44.9537 48.1016 45.2018 48.4942 45.2018 48.9716C45.2018 49.4491 44.9537 49.8417 44.1873 49.8417H43.5949V50.7451H43.1582V50.7446ZM43.5954 49.4487H44.162C44.5841 49.4487 44.7469 49.2563 44.7469 48.9712C44.7469 48.686 44.5841 48.4937 44.162 48.4937H43.5954V49.4487Z" fill="currentColor"/>
<path d="M45.3926 49.4241C45.3926 48.5428 45.8888 48.0508 46.7068 48.0508C47.5249 48.0508 48.0173 48.5433 48.0173 49.4241C48.0173 50.305 47.5211 50.7975 46.7068 50.7975C45.8926 50.7975 45.3926 50.305 45.3926 49.4241ZM47.5619 49.4241C47.5619 48.7984 47.2401 48.4429 46.7068 48.4429C46.1735 48.4429 45.848 48.7984 45.848 49.4241C45.848 50.0498 46.1703 50.4016 46.7068 50.4016C47.2434 50.4016 47.5619 50.0498 47.5619 49.4241Z" fill="currentColor"/>
<path d="M48.3223 50.7446V48.1016H49.3959C50.1473 48.1016 50.3734 48.4533 50.3734 48.8567C50.3734 49.1935 50.2515 49.4304 49.9105 49.5415V49.5786C50.2031 49.6715 50.3213 49.8638 50.3992 50.2188L50.5141 50.7446H50.0699L49.9588 50.2376C49.8997 49.9562 49.7923 49.7709 49.3851 49.7709H48.7594V50.7446H48.3223ZM48.7589 49.3783H49.3659C49.7622 49.3783 49.9175 49.1893 49.9175 48.9266C49.9175 48.6639 49.7618 48.4937 49.3659 48.4937H48.7589V49.3783Z" fill="currentColor"/>
<path d="M51.4347 50.7451V48.4942H50.5684V48.1016H52.7339V48.4942H51.8714V50.7451H51.4347Z" fill="currentColor"/>
<path d="M52.8398 49.994C52.8398 49.9757 52.8398 49.9532 52.8436 49.9312H53.2803C53.2765 49.9462 53.2765 49.9607 53.2765 49.972C53.2765 50.2384 53.4801 50.4199 53.9168 50.4199C54.3534 50.4199 54.5462 50.2642 54.5462 50.0311C54.5462 49.4129 52.8877 49.8683 52.8877 48.8317C52.8877 48.3763 53.2503 48.0508 53.906 48.0508C54.6353 48.0508 54.9426 48.3951 54.9426 48.8613V48.9166H54.5059V48.8758C54.5059 48.6132 54.3469 48.4241 53.9172 48.4241C53.5284 48.4241 53.3436 48.5799 53.3436 48.813C53.3436 49.4462 55.0021 48.9982 55.0021 50.0161C55.0021 50.4565 54.6353 50.797 53.936 50.797C53.1213 50.797 52.8403 50.4007 52.8403 49.9936L52.8398 49.994Z" fill="currentColor"/>
</g>
<defs>
<clipPath id="clip0_1361_16198">
<rect width="54.9997" height="50.6568" fill="currentColor" transform="translate(0 0.34375)"/>
</clipPath>
</defs>
</svg>
