<svg xmlns="http://www.w3.org/2000/svg" fill="none" viewBox="0 0 1000 1000">
    <style>
        @media (prefers-color-scheme: dark) {
        .a { fill: #f8f7ec; }
        }
    </style>
    <path class="a" fill="#181817"
        d="M429.22 776.164c-50.782-50.805-101.353-101.257-151.763-151.87-62.87-63.124-125.569-126.419-188.482-189.499-4.258-4.269-5.054-7.896-2.587-13.388 17.756-39.526 40.486-75.919 68.491-108.938 25.262-29.786 53.963-55.849 86.007-78.253 46.437-32.466 97.171-55.411 152.18-68.721 29.818-7.215 60.103-10.925 90.852-12.15 43.923-1.75 86.953 3.21 129.441 13.789 10.924 2.72 21.604 6.426 32.375 9.745 1.716.529 3.323 1.41 5.931 2.54-2.531 2.361-4.265 4.229-6.242 5.787-23.725 18.691-50.317 32.109-78.638 42.169-35.788 12.711-72.79 19.867-110.542 23.406-3.108.292-6.186.901-9.278 1.363l-.419 1.529c5.009 2.675 9.986 5.413 15.034 8.015 10.682 5.506 21.507 10.745 32.049 16.505 4.066 2.222 7.852 5.219 11.197 8.451 14.225 13.746 15.746 28.811 5.359 45.785-9.597 15.684-22.927 27.678-37.153 38.896-28.586 22.542-59.934 40.769-91.463 58.708-21.064 11.985-42.232 23.784-63.339 35.692-1.897 1.07-3.686 2.333-5.525 3.507l.606 1.385c8.342-2.513 16.672-5.063 25.026-7.534 43.053-12.733 85.988-25.89 129.223-37.971 20.589-5.753 41.661-10.034 63.312-9.723 15.692.225 24.554 5.99 30.086 20.732 5.095 13.579 5.628 27.864 5.048 42.204-.187 4.608-.403 9.214-.605 13.821l1.685.677c1.253-1.635 2.639-3.186 3.737-4.918 10.403-16.417 22.173-31.702 36.421-45.017 21.302-19.908 45.471-34.218 75.16-36.123 28.561-1.834 55.63 9.489 71.292 39.022 1 1.886 2.108 3.716 4.03 7.088 1.351-4.064 2.259-6.414 2.916-8.833 7.151-26.325 16.717-51.553 34.28-72.927 15.09-18.364 33.039-33.253 54.529-43.737 4.285-2.09 7.224-1.15 9.611 2.491 12.353 18.842 25.074 37.462 36.799 56.689 6.626 10.866 11.415 22.84 17.362 34.141 2.992 5.685 2.226 9.694-2.448 14.346A55321.538 55321.538 0 0 0 744.849 600.9c-69.514 69.772-138.915 139.657-208.313 209.545-10.323 10.396-20.302 21.131-30.554 31.597-5.183 5.291-6.8 5.273-12.028-.028-21.521-21.82-42.974-43.706-64.734-65.85Z" />
    <path class="a" fill="#181817"
        d="M759.157 334.022c-15.966 2.871-31.474 3.33-46.919.035-38.387-8.19-64.529-52.427-38.737-91.861 18.995-29.044 47.507-45.27 80.057-54.858 21.819-6.426 43.66-6.658 65.149 2 26.782 10.792 39.76 34.332 34.755 62.81-4.585 26.086-19.763 44.883-40.625 59.841-16.007 11.477-33.94 18.335-53.68 22.033Z" />
</svg>