<svg viewBox="0 0 500 500" fill="none" xmlns="http://www.w3.org/2000/svg">
<path d="M327.936 31.7587C179.077 -10.882 94.7244 65.786 34.2245 170.718C-20.9485 280.337 76.4737 484.61 245.04 479.143C413.606 473.676 463.652 314.456 477.237 285.322C490.822 256.189 476.795 74.3993 327.936 31.7587Z" fill="#F8F7EC"/>
<path fill-rule="evenodd" clip-rule="evenodd" d="M25.655 166.083L25.7932 165.843C56.4137 112.735 93.6948 65.621 143.127 37.4274C192.957 9.00713 254.014 0.443706 330.614 22.3858C408.937 44.8216 451.509 103.914 472.617 160.177C483.172 188.312 488.482 216.001 490.278 238.637C491.177 249.956 491.207 260.14 490.533 268.588C489.88 276.764 488.506 284.198 486.058 289.447C484.982 291.756 483.618 295.076 481.914 299.221C463.606 343.77 406.11 483.673 245.355 488.887C156.661 491.764 87.2301 439.384 47.3892 373.116C7.7755 307.226 -4.04652 225.095 25.5306 166.33L25.655 166.083ZM42.7963 175.349C17.3522 226.198 26.6847 300.875 64.0708 363.06C101.289 424.966 164.852 471.99 244.725 469.399C391.742 464.631 444.467 338.268 463.678 292.227C465.56 287.716 467.12 283.977 468.416 281.198C469.364 279.164 470.524 274.543 471.123 267.035C471.701 259.799 471.701 250.668 470.868 240.181C469.204 219.205 464.251 193.319 454.389 167.034C434.665 114.46 395.794 61.3365 325.259 41.1316C253 20.433 197.45 28.8832 152.764 54.3697C107.751 80.0426 72.6453 123.632 42.7963 175.349Z" fill="#181817"/>
<path fill-rule="evenodd" clip-rule="evenodd" d="M217.488 320.434C243.264 378.45 239.93 437.717 228.946 481.246L210.068 476.469C220.332 435.792 223.197 381.249 199.698 328.359C176.326 275.757 126.254 223.382 27.946 187.82L34.5616 169.482C136.905 206.504 191.583 262.13 217.488 320.434Z" fill="black"/>
<path fill-rule="evenodd" clip-rule="evenodd" d="M323.344 194.888C350.553 239.238 395.893 274.393 470.514 305.641L463.001 323.63C386.268 291.497 336.877 254.195 306.754 205.094C276.718 156.135 266.689 96.7986 265.801 22.4793L285.271 22.2461C286.144 95.2858 296.048 150.395 323.344 194.888Z" fill="black"/>
<path fill-rule="evenodd" clip-rule="evenodd" d="M42.6594 184.316L70.1068 156.465L83.9659 170.16L64.9712 189.434L72.5667 211.758L54.1358 218.046L42.6594 184.316ZM80.4098 202.165L110.823 178.584L122.744 194L100.88 210.953L103.471 236.33L84.1006 238.313L80.4098 202.165ZM113.915 219.001L152.307 200.488L160.755 218.055L132.416 231.72L130.497 255.335L111.09 253.753L113.915 219.001ZM272.823 60.2292L252.89 69.0102L245.05 51.1631L272.477 39.0804L303.657 51.6125L296.404 69.7071L272.823 60.2292ZM147.663 241.956L182.432 235.071L186.209 254.199L162.964 258.802L156.062 281.976L137.403 276.403L147.663 241.956ZM280.428 95.1515L256.776 107.598L247.718 90.3391L279.399 73.6663L312.182 87.0863L304.814 105.134L280.428 95.1515ZM185.917 288.75L172.069 310.43L155.666 299.925L174.826 269.928L209.77 267.672L211.023 287.129L185.917 288.75ZM285.619 132.012L268.224 148.428L254.87 134.238L279.744 110.765L316.13 118.742L311.966 137.789L285.619 132.012ZM203.98 319.169L188.876 345.366L172.013 335.617L194.461 296.683L231.051 305.856L226.322 324.77L203.98 319.169ZM297.518 165.291L284.977 187.042L268.115 177.293L287.563 143.562L323.307 150.332L319.688 169.49L297.518 165.291ZM218.335 360.564L201.873 378.001L187.724 364.606L212.513 338.35L248.277 349.433L242.521 368.059L218.335 360.564ZM302.893 179.6L340.743 181.875L339.577 201.338L315.34 199.881L303.583 227.063L285.716 219.314L302.893 179.6ZM226.649 400.02L207.954 409.276L199.324 391.798L225.58 378.798L253.297 389.195L246.466 407.454L226.649 400.02ZM224.423 439.134L207.29 445.299L200.706 426.949L228.151 417.075L253.209 437.374L240.963 452.533L224.423 439.134ZM322.96 216.14L359.307 210.068L362.511 229.3L338.435 233.322L331.317 259.235L312.543 254.064L322.96 216.14ZM348.035 244.267L387.294 236.173L391.221 255.27L364.866 260.704L359.487 290.632L340.324 287.179L348.035 244.267ZM380.95 271.639L414.464 255.546L422.883 273.127L398.656 284.761L394.274 313.671L375.024 310.745L380.95 271.639ZM411.258 297.421L438.614 272.451L451.731 286.861L431.626 305.212L434.268 331.087L414.898 333.07L411.258 297.421Z" fill="#E56138"/>
</svg>
